<svg width="12" height="12" viewBox="0 0 12 12" fill="none" xmlns="http://www.w3.org/2000/svg">
<path d="M8.33333 7.55623H7.80667L7.62 7.37623C8.27333 6.61623 8.66667 5.62957 8.66667 4.55623C8.66667 2.1629 6.72667 0.2229 4.33333 0.2229C1.94 0.2229 0 2.1629 0 4.55623C0 6.94957 1.94 8.88957 4.33333 8.88957C5.40667 8.88957 6.39333 8.49623 7.15333 7.8429L7.33333 8.02957V8.55623L10.6667 11.8829L11.66 10.8896L8.33333 7.55623V7.55623ZM4.33333 7.55623C2.67333 7.55623 1.33333 6.21623 1.33333 4.55623C1.33333 2.89623 2.67333 1.55623 4.33333 1.55623C5.99333 1.55623 7.33333 2.89623 7.33333 4.55623C7.33333 6.21623 5.99333 7.55623 4.33333 7.55623Z" fill="#C0C0C0"/>
</svg>
